HIERARCHY
ROOT Hips
{
	OFFSET -14.64140 90.27770 -84.91600
	CHANNELS 6 Xposition Yposition Zposition Zrotation Xrotation Yrotation
	JOINT Spine
	{
		OFFSET 0.00000 13.20850 -1.60436
		CHANNELS 3 Zrotation Xrotation Yrotation
		JOINT Spine1
		{
			OFFSET 0.00000 8.61716 0.00000
			CHANNELS 3 Zrotation Xrotation Yrotation
			JOINT Spine2
			{
				OFFSET 0.00000 8.61717 0.00000
				CHANNELS 3 Zrotation Xrotation Yrotation
				JOINT Spine3
				{
					OFFSET 0.00000 8.61717 0.00000
					CHANNELS 3 Zrotation Xrotation Yrotation
					JOINT Neck
					{
						OFFSET 0.00000 11.07920 1.10792
						CHANNELS 3 Zrotation Xrotation Yrotation
						JOINT Neck1
						{
							OFFSET 0.00000 7.08032 0.00000
							CHANNELS 3 Zrotation Xrotation Yrotation
							JOINT Head
							{
								OFFSET 0.00000 7.08031 0.00000
								CHANNELS 3 Zrotation Xrotation Yrotation
								End site
								{
									OFFSET 0.00000 0.00000 0.00000
								}
							}
						}
					}
					JOINT RightShoulder
					{
						OFFSET -0.01000 7.91373 5.19711
						CHANNELS 3 Zrotation Xrotation Yrotation
						JOINT RightArm
						{
							OFFSET -18.41580 0.00000 0.00000
							CHANNELS 3 Zrotation Xrotation Yrotation
							JOINT RightForeArm
							{
								OFFSET -29.11090 0.00000 0.00000
								CHANNELS 3 Zrotation Xrotation Yrotation
								JOINT RightHand
								{
									OFFSET -24.65040 0.00000 0.00000
									CHANNELS 3 Zrotation Xrotation Yrotation
									JOINT RightHandThumb1
									{
										OFFSET -5.35114 -0.85590 3.97906
										CHANNELS 3 Zrotation Xrotation Yrotation
										JOINT RightHandThumb2
										{
											OFFSET -4.52789 0.00000 0.00000
											CHANNELS 3 Zrotation Xrotation Yrotation
											JOINT RightHandThumb3
											{
												OFFSET -2.46976 0.00000 0.00000
												CHANNELS 3 Zrotation Xrotation Yrotation
												End site
												{
													OFFSET 0.00000 0.00000 0.00000
												}
											}
										}
									}
									JOINT RightHandIndex1
									{
										OFFSET -14.26970 0.00000 2.88139
										CHANNELS 3 Zrotation Xrotation Yrotation
										JOINT RightHandIndex2
										{
											OFFSET -5.48836 0.00000 0.00000
											CHANNELS 3 Zrotation Xrotation Yrotation
											JOINT RightHandIndex3
											{
												OFFSET -3.01859 0.00000 0.00000
												CHANNELS 3 Zrotation Xrotation Yrotation
												End site
												{
													OFFSET 0.00000 0.00000 0.00000
												}
											}
										}
									}
									JOINT RightHandMiddle1
									{
										OFFSET -14.26970 0.00000 -0.09147
										CHANNELS 3 Zrotation Xrotation Yrotation
										JOINT RightHandMiddle2
										{
											OFFSET -6.17441 0.00000 0.00000
											CHANNELS 3 Zrotation Xrotation Yrotation
											JOINT RightHandMiddle3
											{
												OFFSET -3.56743 0.00000 0.00000
												CHANNELS 3 Zrotation Xrotation Yrotation
												End site
												{
													OFFSET 0.00000 0.00000 0.00000
												}
											}
										}
									}
									JOINT RightHandRing1
									{
										OFFSET -12.69180 0.00000 -3.06433
										CHANNELS 3 Zrotation Xrotation Yrotation
										JOINT RightHandRing2
										{
											OFFSET -5.62556 0.00000 0.00000
											CHANNELS 3 Zrotation Xrotation Yrotation
											JOINT RightHandRing3
											{
												OFFSET -3.56744 0.00000 0.00000
												CHANNELS 3 Zrotation Xrotation Yrotation
												End site
												{
													OFFSET 0.00000 0.00000 0.00000
												}
											}
										}
									}
									JOINT RightHandPinky1
									{
										OFFSET -11.11390 0.00000 -6.03719
										CHANNELS 3 Zrotation Xrotation Yrotation
										JOINT RightHandPinky2
										{
											OFFSET -4.52789 0.00000 0.00000
											CHANNELS 3 Zrotation Xrotation Yrotation
											JOINT RightHandPinky3
											{
												OFFSET -2.46976 0.00000 0.00000
												CHANNELS 3 Zrotation Xrotation Yrotation
												End site
												{
													OFFSET 0.00000 0.00000 0.00000
												}
											}
										}
									}
								}
							}
						}
					}
					JOINT LeftShoulder
					{
						OFFSET 0.01000 7.91373 5.19711
						CHANNELS 3 Zrotation Xrotation Yrotation
						JOINT LeftArm
						{
							OFFSET 18.41580 0.00000 0.00000
							CHANNELS 3 Zrotation Xrotation Yrotation
							JOINT LeftForeArm
							{
								OFFSET 29.11090 0.00000 0.00000
								CHANNELS 3 Zrotation Xrotation Yrotation
								JOINT LeftHand
								{
									OFFSET 24.65040 0.00000 0.00000
									CHANNELS 3 Zrotation Xrotation Yrotation
									JOINT LeftHandThumb1
									{
										OFFSET 5.35114 -0.85590 3.97906
										CHANNELS 3 Zrotation Xrotation Yrotation
										JOINT LeftHandThumb2
										{
											OFFSET 4.52789 0.00000 0.00000
											CHANNELS 3 Zrotation Xrotation Yrotation
											JOINT LeftHandThumb3
											{
												OFFSET 2.46977 0.00000 0.00000
												CHANNELS 3 Zrotation Xrotation Yrotation
												End site
												{
													OFFSET 0.00000 0.00000 0.00000
												}
											}
										}
									}
									JOINT LeftHandIndex1
									{
										OFFSET 14.26970 0.00000 2.88139
										CHANNELS 3 Zrotation Xrotation Yrotation
										JOINT LeftHandIndex2
										{
											OFFSET 5.48836 0.00000 0.00000
											CHANNELS 3 Zrotation Xrotation Yrotation
											JOINT LeftHandIndex3
											{
												OFFSET 3.01859 0.00000 0.00000
												CHANNELS 3 Zrotation Xrotation Yrotation
												End site
												{
													OFFSET 0.00000 0.00000 0.00000
												}
											}
										}
									}
									JOINT LeftHandMiddle1
									{
										OFFSET 14.26970 0.00000 -0.09147
										CHANNELS 3 Zrotation Xrotation Yrotation
										JOINT LeftHandMiddle2
										{
											OFFSET 6.17440 0.00000 0.00000
											CHANNELS 3 Zrotation Xrotation Yrotation
											JOINT LeftHandMiddle3
											{
												OFFSET 3.56744 0.00000 0.00000
												CHANNELS 3 Zrotation Xrotation Yrotation
												End site
												{
													OFFSET 0.00000 0.00000 0.00000
												}
											}
										}
									}
									JOINT LeftHandRing1
									{
										OFFSET 12.69180 0.00000 -3.06433
										CHANNELS 3 Zrotation Xrotation Yrotation
										JOINT LeftHandRing2
										{
											OFFSET 5.62556 0.00000 0.00000
											CHANNELS 3 Zrotation Xrotation Yrotation
											JOINT LeftHandRing3
											{
												OFFSET 3.56744 0.00000 0.00000
												CHANNELS 3 Zrotation Xrotation Yrotation
												End site
												{
													OFFSET 0.00000 0.00000 0.00000
												}
											}
										}
									}
									JOINT LeftHandPinky1
									{
										OFFSET 11.11390 0.00000 -6.03719
										CHANNELS 3 Zrotation Xrotation Yrotation
										JOINT LeftHandPinky2
										{
											OFFSET 4.52789 0.00000 0.00000
											CHANNELS 3 Zrotation Xrotation Yrotation
											JOINT LeftHandPinky3
											{
												OFFSET 2.46976 0.00000 0.00000
												CHANNELS 3 Zrotation Xrotation Yrotation
												End site
												{
													OFFSET 0.00000 0.00000 0.00000
												}
											}
										}
									}
								}
							}
						}
					}
					JOINT pCube4
					{
						OFFSET 0.00000 10.91090 1.10792
						CHANNELS 3 Zrotation Xrotation Yrotation
						End site
						{
							OFFSET 0.00000 0.00000 0.00000
						}
					}
				}
			}
		}
	}
	JOINT RightUpLeg
	{
		OFFSET -9.98441 0.00000 0.00000
		CHANNELS 3 Zrotation Xrotation Yrotation
		JOINT RightLeg
		{
			OFFSET 0.00000 -42.11790 0.00000
			CHANNELS 3 Zrotation Xrotation Yrotation
			JOINT RightFoot
			{
				OFFSET 0.00000 -45.00020 -0.00001
				CHANNELS 3 Zrotation Xrotation Yrotation
				JOINT RightForeFoot
				{
					OFFSET 0.00000 -3.74820 0.00000
					CHANNELS 3 Zrotation Xrotation Yrotation
					JOINT RightToeBase
					{
						OFFSET 0.00000 0.06325 14.43120
						CHANNELS 3 Zrotation Xrotation Yrotation
						End site
						{
							OFFSET 0.00000 0.00000 0.00000
						}
					}
				}
			}
		}
	}
	JOINT LeftUpLeg
	{
		OFFSET 9.98441 0.00000 0.00000
		CHANNELS 3 Zrotation Xrotation Yrotation
		JOINT LeftLeg
		{
			OFFSET 0.00000 -42.11800 0.00000
			CHANNELS 3 Zrotation Xrotation Yrotation
			JOINT LeftFoot
			{
				OFFSET 0.00000 -45.00070 0.00000
				CHANNELS 3 Zrotation Xrotation Yrotation
				JOINT LeftForeFoot
				{
					OFFSET 0.00000 -3.74824 0.00000
					CHANNELS 3 Zrotation Xrotation Yrotation
					JOINT LeftToeBase
					{
						OFFSET 0.00000 0.06325 14.43110
						CHANNELS 3 Zrotation Xrotation Yrotation
						End site
						{
							OFFSET 0.00000 0.00000 0.00000
						}
					}
				}
			}
		}
	}
}
MOTION
Frames: 4
Frame Time: 0.050000
0.016804803711192338 0.04078865023074423 0.016252682794462237 -0.01000376153333067 0.005896813371930851 -0.04808203523629487 -2.251940095996657 1.0376953694311934 -0.8463452514153926 -1.1497926668286884 3.8596051847777035 0.42638007323206756 -1.1436059740192102 -1.974096584754986 -1.997525710130053 0.031278940025155424 0.4918934292456921 -0.8919311332201157 -1.0621904919067282 13.426051076273858 2.6221870641416034 0.06639836214193515 -0.1747617631812178 5.640333027989461 -0.6745063092542515 -15.409506682705894 0.47169336860421485 -4.997017950946197 1.6822021496848754 -15.994145429696683 73.00598215361909 16.646236249711983 -4.669981976358645 4.933361845579445 -1.943563259958282 43.05380669625389 20.179681608653937 -0.157729144331143 -2.602230722327067 4.503550892620598 -0.10078564201304221 -1.6369336539294823 0.04066497430112056 0.04758627450205132 -56.24683695776791 -0.034582728043379765 -0.04701960490692981 -56.26087484713582 -38.778723167085325 0.03211896894050439 -0.04565573951437529 0.041942997013352655 0.0017429608272412254 0.0071557335493313825 0.018648119562085924 -0.008867904311583765 -0.03644449435164574 -36.724008564441434 0.02655379342612618 -0.044847870238909425 0.004038616030606387 -0.035489486393494925 -0.03277604524019675 -0.026953694560752015 -0.021959977810461603 -0.03646480122660049 -19.730724502230128 0.030758457543367725 -0.013687093394544617 0.0493802960080942 0.0056122569084113205 -0.002917821648358084 -0.002135053758599482 0.0022324850036560973 0.047740808109344376 24.09809296945077 0.02057850281927765 -0.04754393960334193 28.889576686875202 -0.014934650270985261 -0.0015953729485561141 28.836972774268915 -0.03408436240741527 0.014436701089672987 8.204017143604073 1.7027959375344544 14.18241816694148 -69.15204352210955 18.504992319240177 -10.816876453764857 -1.6447609204846867 -17.700380969211643 -61.92803525884137 -6.574636233301113 -0.5552857948137386 1.4723955556599946 -0.4283677098203498 0.040206136800457384 -8.101680708194394 -0.010781303468648702 -0.02156829138938059 44.5663194198878 0.006902789899471437 0.0335162130885518 44.55524574785387 12.492845121262366 0.035494051308224785 -0.01519459480393378 0.0355109048164238 -0.013100242745525624 -0.04504916544254746 -0.014263784116421482 0.015940079984319875 -0.0014017469903221862 11.139265991537863 -0.021604254386908432 0.02565793805094003 -0.04535614681711258 0.037773068655253046 0.004453076147880482 -0.04203130571968116 -0.03550386904587239 -0.029003199442709172 4.726424885686732 0.03433408223192837 -0.032284976645919665 0.01898570550088422 -0.013083646242144559 0.00036446986710602893 0.012383689597663984 -0.04062614743039891 -0.03622830335932501 -5.633260484063309 -0.0067714509402854554 -0.008849184597238042 -6.686649707679137 0.046777669971713606 -0.028752435439957928 -6.745249881752241 0.033134375414072235 -0.005704117904700685 -0.0018006712277840043 -0.010954855345571862 -0.01950965124512665 8.008789497642606 3.464550977072993 -19.24566322732581 0.008691722145604147 10.400598928434434 0.009342047573953606 -5.621326710842909 -15.676798477153856 3.198462096308795 -0.03212450718439563 0.019529447798572568 -0.001204101380077601 -0.018920297496550446 4.724462322732501 -0.009858726974078266 12.412706251998358 -8.205485497857255 6.92077322937659 0.009221343418008352 46.36616046365509 0.03586034685988038 -4.3411478244680275 -14.703849410167477 -3.8462696975258135 0.005405070225328763 0.023902788081493872 -0.02668545323985351 0.00972097991842664 -10.779733391426257 -0.04837101361320251 
0.013012102118745372 -0.03256964076092498 0.014814395656982277 -0.032072436313016185 0.004629724759985846 0.047326197172557496 -2.2091988652646957 1.0638360412754495 -0.8908871965885569 -1.137847145002565 3.933790011949542 0.42077710761424003 -1.166822583100239 -1.8851799289577582 -1.7687057137193984 -0.04537538263476064 0.5127634175264246 -0.9235097209013908 -1.1734705522661444 13.284468921332314 2.9012005005936268 -0.0027321568890976 -0.26484279636385755 6.059373848896663 -0.7729553695599006 -15.530227328023134 0.47913247266221626 -4.721800546541572 1.617786810318091 -16.10017703208855 73.09059506713402 17.232175622924164 -5.650586170613951 5.278212583431556 -2.089774374745373 42.30032004880838 20.22954603372007 -0.1306592241448585 -2.6497948282288757 4.527313582496657 -0.12484131844754325 -1.599531308972277 0.028097906141511808 -0.04191459253538081 -56.2474312703319 -0.0100411056501109 0.034529953827948795 -56.18843968805338 -38.748481605045534 0.005502245924123432 0.01839542324238756 -0.012425480028150165 -0.03446702081047437 -0.036149580111333984 -0.026229954340873784 0.025062677396225804 -0.04493965651216626 -36.65780921828574 -0.03951050076532362 -0.038438223750828934 -0.028885179848119183 -0.012221407236500025 0.044599125388918096 0.020064524921287755 -0.028803505819098952 -0.017356996051847855 -19.768335189882 0.042153388274074804 -0.012518644417286659 -0.026785238431552075 0.04351832823465945 0.04720655260749064 0.04049453516040152 -0.04962647005842964 0.035961680398315606 24.0641303791848 -0.041705698286692836 0.0049995717407779585 28.878271106582524 0.009504202328125924 0.02335732964734941 28.83427174885328 -0.01457701322222798 0.039776516860603656 7.8774759139453705 1.7020340630740447 14.348064734795368 -70.1303272453248 19.366853726811563 -8.770717209297313 -2.107002896577178 -17.322414329509407 -61.86107650920838 -7.084743589519263 -0.7258843665958693 1.5560741983762394 -0.45478617617879413 0.10880961630993985 -8.1011892752317 0.01728173735907968 -0.005956635452888153 44.608673823611745 -0.016940660737874355 -0.0034864224435829923 44.57368621798665 12.486750152187614 0.045427195758182895 -0.029723737580519608 0.01050641646803107 0.0009384426478248531 -0.0012232512533662523 -0.022372802246216645 0.0036258423257375717 0.041242860817945926 11.105048547579415 0.0006417051709267049 -0.010825882477559433 -0.047286318831054004 -0.04830304522061114 -0.007195730394668558 0.04046918690950534 -0.001062915241887482 0.01560037095444704 4.768136934401391 0.0022470929265007065 0.0010251724956651684 -0.007146860046686632 0.02631026275019709 -0.011351205110856877 0.007201412351905813 -0.011087910067392055 -0.03240171337659945 -5.631856848556606 -0.024816271822369243 -0.026319720589069076 -6.763161474103888 0.006442022248021812 0.003172104537205066 -6.700034258094947 0.017248441341910645 -0.02015704296871867 -0.014221551140129303 -0.007323257930793458 0.007305000716912562 8.0145646734925 3.4758464675451646 -19.205000112347808 -0.010112192292077032 10.417940061979458 -0.022888906084180236 -5.60160557354647 -15.671586534247453 3.20691887997223 -0.007722627464606618 -0.005153236938829896 -0.018723053002134823 0.04461401973022876 4.7078948804898735 0.00011538564171806141 12.458798036660959 -8.270930899610459 6.871027164633445 -0.0486264976204286 46.36177213403055 0.012486687140606509 -4.315465845332067 -14.718990874853983 -3.8514187194825045 -0.02416046978636595 -0.001354555641503927 -0.0008491070356486726 0.04097999772447742 -10.75954958425661 0.02351786062340214 
-0.005266467262188872 -0.020757227427054145 0.039547428910860744 -0.04012383800734776 -0.03464418542220359 -0.04757570516905755 -2.2285633580366047 1.0505689120147126 -0.8511864110742832 -1.1811432987677282 3.914570840077949 0.3955886671349147 -1.1747535194589749 -1.875772675829548 -1.8250691747036667 -0.05537840369624892 0.5857640025558775 -0.8761082526498456 -1.182510557875753 13.12469899247992 3.045800326815167 -0.0736052266160729 -0.30519433079170294 6.448977070877955 -0.8563042429108133 -15.60418759818475 0.5901758670789827 -4.486940434314153 1.5841608506060814 -16.15028643952074 73.08959463037176 17.940745685595044 -6.305289420797269 4.916406014119196 -2.0787570644451256 41.69114025071741 20.049566413981367 -0.10058745879475617 -2.8270923366293372 4.486793511315559 -0.11687893676195253 -1.572723502429479 0.04823234893151495 -0.017678456399707044 -56.189243175046094 -0.036529186974936956 0.017297517442418 -56.24999308944481 -38.7627992815966 0.0196742406256613 -0.01491666650703479 -0.039714179105664285 0.0025851832918208427 0.025368082615760998 -0.0369781220780317 0.033095930157685804 0.04516494512454205 -36.69511914071571 0.0015534215938231616 0.007308300977462834 -0.0041969799308751955 0.046532562089639115 -0.012794981823606288 -0.02534252727145831 0.025686070327161 -0.007127844740571517 -19.72641216359812 0.00531947480621912 0.002239991693479558 0.009942193705796241 0.03221362381511829 0.04324812065163906 0.00039685155879518437 0.03210406073685499 0.02859403769086872 24.099418172474937 -0.042965662430188796 -0.030170355958928093 28.91082123458607 0.03819696426970349 -0.03436462664323141 28.828279159124712 -0.03623962737013423 0.004984466609700476 7.830481578616605 1.6202464993221157 14.47280261738436 -70.34455009654697 19.715097996250176 -8.417187544969865 -0.15866047817495552 -18.04372867395793 -64.31201647545184 -6.837265819978036 -1.0327196729908799 1.6167914798169947 -0.4727477993451289 0.09079695178097387 -8.136499484537834 0.021470950949380656 -0.033067753021108114 44.55856008240307 0.029665312649358875 0.03513625174284754 44.51861349075547 12.459080269269469 -0.0341456363655525 0.02760504392136299 -0.0121850151397256 -0.017214322429079953 -0.04084836235364002 -0.0499522932970188 -0.040446601291456406 -0.031118466851612382 11.093300895128733 0.049572416301376744 -0.016684810829594367 0.005649521184577001 -0.02774643395583368 -0.02079279286448705 -0.03125893982023569 0.003978066886498507 0.019716362840612026 4.756443756592725 0.036285409135121016 0.02925316869042507 0.00577981496954469 0.04449550848604164 -0.013944600260983658 -0.007085936709881669 0.0031372905686757263 -0.011332681252524195 -5.606590399423356 0.004281394902343728 0.03309878162091363 -6.7480688002194915 -0.0032798837230024296 -0.001747986995128724 -6.702119268060661 -0.00674860287710706 0.015006743067470607 -0.02342849235328158 0.014905813518196543 0.02988164476795382 8.070698185294596 3.503500126339877 -19.237540543393223 -0.04130408608778438 10.41122286987332 -0.008889837513712081 -5.646938916049731 -15.646838951535734 3.2206481001404077 0.00870792856452378 0.010831075079190145 -0.044508317475672535 -0.00822853571730786 4.649227686434042 0.01786256286786106 12.45016763890639 -8.28034805921189 6.848081847686478 -0.001060623329727521 46.38001123678053 0.021795240362169177 -4.31396745992525 -14.770468145520706 -3.8832976090897655 -0.015423553469451309 -0.011942452408809628 -0.036245735227387096 -0.0172304923385169 -10.718078399228562 0.02801754131418166 
-0.013356536107050749 -0.0056261043143157495 0.034515722526815014 -0.048169302629369935 0.03967385385811621 0.012078412412007751 -2.1647387621761047 1.0741288332542471 -0.8348641200852103 -1.1070896064769074 3.9668333281438164 0.41610276483880665 -1.1179417050233498 -1.8097938811700416 -1.8827134191097328 -0.07997778189352074 0.57721740029389 -0.9261891165496807 -1.2351589496753486 13.076281069247493 3.088324192603972 -0.091117810079346 -0.326170783958203 6.528800007193738 -0.8837382327245127 -15.616437699808426 0.5551104476686421 -4.341995791656967 1.5041292346739101 -16.06508609391901 72.94691315301614 18.0549889934396 -6.428986226569903 5.239528909896911 -1.9461633503887925 42.197730823221455 20.0777884559704 -0.103159073875322 -2.923625399243051 4.49964055121168 -0.15091372377482082 -1.5889712958055524 -0.03983318338878611 0.02767154216263897 -56.23799054941804 -0.03510906556193187 -0.027056614976712086 -56.18448186461707 -38.817562587701104 -0.037904943605620654 0.011677379493490908 -0.020685964824272218 -0.034895848805082244 -0.004831797756415868 0.015640164660045423 0.03858706417948213 -0.007454331343181406 -36.730544481819216 0.04138247120562921 0.013685869022135937 0.009434239390414264 0.031765379423249064 -0.011368510189216302 0.036835003066895265 -0.0237861590193689 -0.0317382276222947 -19.71232641934389 0.03419156380825105 -0.03881015584746415 0.009629521937012709 0.025638697515336633 0.014194627583701202 -0.04905710075027169 -0.038787535113795554 -0.010308371980075058 24.079234091111022 0.010961219441208087 -0.01817778477009206 28.86271638531519 0.03835969513638896 0.03042793326808219 28.908989664362235 0.01117010626640117 0.008696163788236263 7.925743394269477 1.6932865675642832 14.379675023819505 -70.06950800472495 19.514264962536185 -9.037655093213147 0.9497381704408989 -18.370577895469484 -67.49055805010762 -6.260356223323092 -1.3038577768114965 1.479786069130901 -0.49387041242385454 0.0630449730563736 -8.168316401941285 -0.017236104301703793 -0.011158976345363844 44.56767204936377 0.021369775961768162 -0.04914724842888935 44.572664326913646 12.440945292492628 0.0421731684812129 -0.03323324838431838 0.04580830061996576 -0.0008021175048138888 0.040101620690823736 -0.015737937363613355 0.0084136972602022 -0.0433669848411548 11.105048092998068 0.025818194782880336 -0.011704091559521469 0.023767694912342745 -0.011691327271671315 0.01999159119094185 -0.04647416412966093 -0.02452173352366829 0.02039513142184864 4.765039508155341 0.0228484300460745 0.02074410136465491 -0.0046033950354491164 -0.008204510980892806 -0.002172906776256744 0.028464901481645013 -0.027859819269779974 -0.017635088775276624 -5.629028592134897 0.04218465511778473 -0.04856373374290846 -6.6946003846208875 -0.03607224109021922 -0.04508469839247048 -6.693025576532759 0.013247663194429996 0.0348128495860155 -0.0027790883466075654 -0.0015099275714261736 0.004459557535768532 8.066764476830665 3.5015420279163907 -19.2325734801615 -0.04714763141379868 10.3948502784838 0.05643370788370758 -5.575511508711221 -15.628019867935395 3.159439051739977 0.03415278046807707 0.004636882629516275 0.038866788287710397 0.003217234563300881 4.673611771460499 -0.04200746591028596 12.489450321049782 -8.234064790436173 6.90384967196492 0.03997199274675372 46.37463443579626 0.04553968376757965 -4.366602580406852 -14.77755216409522 -3.861321782250353 -0.019109100371901864 -0.03648034778557312 -0.0007598196097436556 0.0013496542904042146 -10.753924360471856 0.015448912824307007 
